<svg width="1920" height="470" viewBox="0 0 1920 470" fill="none" xmlns="http://www.w3.org/2000/svg">
<path style="mix-blend-mode:lighten" d="M817.565 0L-793 470H2898L1287.44 0H817.539H817.565ZM1296.68 2.95436H1274.31L1265.45 0.10276H1286.92L1296.66 2.95436H1296.68ZM1032.77 57.5201L1034.11 48.9139H1070.86L1072.2 57.5201H1032.75H1032.77ZM1072.28 57.9054L1073.84 67.9246H1031.13L1032.7 57.9054H1072.25H1072.28ZM1031.13 57.5201H991.679L995.84 48.9139H1032.59L1031.13 57.5201ZM1034.16 48.5799L1035.32 41.1041H1069.63L1070.79 48.5799H1034.14H1034.16ZM1072.38 48.9139H1109.13L1113.29 57.5201H1073.84L1072.38 48.9139ZM1072.33 48.5799L1071.07 41.1041H1105.38L1108.98 48.5799H1072.33ZM1071.02 40.8215L1069.91 34.2706H1102.1L1105.26 40.8215H1071.02ZM1069.61 40.8215H1035.37L1036.4 34.2706H1068.58L1069.61 40.8215ZM1033.98 40.8215H999.744L1002.9 34.2706H1035.09L1033.98 40.8215ZM1033.93 41.1041L1032.67 48.5799H996.02L999.616 41.1041H1033.93ZM994.505 48.5799H957.853L963.889 41.1041H998.203L994.505 48.5799ZM994.351 48.9139L990.087 57.5201H950.636L957.596 48.9139H994.351ZM989.907 57.9054L984.95 67.9246H942.237L950.353 57.9054H989.907ZM991.551 57.9054H1031.1L1029.41 67.9246H986.697L991.525 57.9054H991.551ZM1029.33 68.387L1027.33 80.2301H980.789L986.491 68.387H1029.33ZM1031.1 68.387H1073.95L1075.8 80.2301H1029.26L1031.1 68.387ZM1075.72 68.387H1118.56L1124.26 80.2301H1077.72L1075.72 68.387ZM1075.64 67.9503L1073.95 57.9311H1113.5L1118.33 67.9503H1075.62H1075.64ZM1115.14 57.9311H1154.7L1162.81 67.9503H1120.1L1115.14 57.9311ZM1114.96 57.5458L1110.7 48.9396H1147.46L1154.42 57.5458H1114.96ZM1110.55 48.6056L1106.85 41.1298H1141.16L1147.2 48.6056H1110.55ZM1106.72 40.8472L1103.48 34.2963H1135.67L1140.96 40.8472H1106.72ZM1103.36 34.065L1100.5 28.2848H1130.79L1135.46 34.065H1103.36ZM1102.02 34.065H1069.91L1068.94 28.2848H1099.22L1101.99 34.065H1102.02ZM1068.6 34.065H1036.5L1037.4 28.2848H1067.68L1068.58 34.065H1068.6ZM1035.19 34.065H1003.08L1005.86 28.2848H1036.14L1035.16 34.065H1035.19ZM1001.77 34.065H969.668L974.342 28.2848H1004.62L1001.77 34.065ZM1001.64 34.3219L998.409 40.8729H964.171L969.462 34.3219H1001.64ZM962.759 40.8729H928.521L935.944 34.3219H968.127L962.759 40.8729ZM962.528 41.1555L956.389 48.6313H919.737L928.213 41.1555H962.528ZM956.132 48.9396L949.069 57.5458H909.618L919.378 48.9396H956.132ZM948.761 57.9311L940.516 67.9503H897.803L909.181 57.9311H948.735H948.761ZM940.156 68.4127L930.448 80.2558H883.908L897.341 68.4127H940.182H940.156ZM941.929 68.4127H984.77L978.914 80.2558H932.374L941.929 68.4127ZM978.657 80.7953L971.646 94.9762H920.482L931.938 80.7953H978.657ZM980.584 80.7953H1027.3L1024.89 94.9762H973.726L980.558 80.7953H980.584ZM1029.23 80.7953H1075.95L1078.16 94.9762H1027L1029.2 80.7953H1029.23ZM1077.88 80.7953H1124.6L1131.43 94.9762H1080.26L1077.85 80.7953H1077.88ZM1126.52 80.7953H1173.24L1184.7 94.9762H1133.53L1126.52 80.7953ZM1126.27 80.2558L1120.41 68.4127H1163.25L1172.81 80.2558H1126.27ZM1165.02 68.4127H1207.86L1221.3 80.2558H1174.76L1165.05 68.4127H1165.02ZM1164.66 67.9759L1156.42 57.9568H1195.97L1207.35 67.9759H1164.64H1164.66ZM1156.11 57.5715L1149.05 48.9653H1185.8L1195.56 57.5715H1156.11ZM1148.77 48.6313L1142.63 41.1555H1176.94L1185.42 48.6313H1148.77ZM1142.4 40.8729L1137.03 34.3219H1169.21L1176.63 40.8729H1142.4ZM1136.82 34.0907L1132.1 28.3105H1162.38L1168.93 34.0907H1136.82ZM1131.89 28.1049L1127.68 22.9669H1156.29L1162.12 28.1049H1131.89ZM1130.63 28.1049H1100.4L1097.86 22.9669H1126.47L1130.63 28.1049ZM1099.17 28.1049H1068.94L1068.06 22.9669H1096.68L1099.14 28.1049H1099.17ZM1067.71 28.1049H1037.47L1038.27 22.9669H1066.88L1067.68 28.1049H1067.71ZM1036.24 28.1049H1006.01L1008.48 22.9669H1037.09L1036.22 28.1049H1036.24ZM1004.78 28.1049H974.548L978.709 22.9669H1007.32L1004.78 28.1049ZM973.315 28.1049H943.084L948.915 22.9669H977.527L973.315 28.1049ZM973.135 28.3362L968.409 34.1164H936.304L942.853 28.3362H973.135ZM934.968 34.1164H902.863L911.287 28.3362H941.569L934.943 34.1164H934.968ZM934.686 34.3733L927.186 40.9243H892.948L902.503 34.3733H934.686ZM926.852 41.2069L918.299 48.6827H881.647L892.538 41.2069H926.852ZM917.914 48.991L908.051 57.5972H868.6L881.159 48.991H917.914ZM907.614 57.9825L896.108 68.0016H853.395L868.035 57.9825H907.589H907.614ZM895.594 68.4641L882.007 80.3072H835.467L852.753 68.4641H895.594ZM881.416 80.8467L865.158 95.0276H813.995L834.696 80.8467H881.416ZM883.343 80.8467H930.062L918.427 95.0276H867.264L883.343 80.8467ZM917.888 95.6699L903.685 112.985H846.922L866.545 95.6699H917.888ZM919.994 95.6699H971.337L962.759 112.985H905.996L919.969 95.6699H919.994ZM973.469 95.6699H1024.81L1021.88 112.985H965.122L973.469 95.6699ZM1026.94 95.6699H1078.29L1080.98 112.985H1024.22L1026.92 95.6699H1026.94ZM1080.42 95.6699H1131.76L1140.11 112.985H1083.35L1080.42 95.6699ZM1133.89 95.6699H1185.24L1199.21 112.985H1142.45L1133.87 95.6699H1133.89ZM1187.37 95.6699H1238.71L1258.33 112.985H1201.57L1187.37 95.6699ZM1186.83 95.0276L1175.19 80.8467H1221.91L1237.99 95.0276H1186.83ZM1223.81 80.8467H1270.53L1291.24 95.0276H1240.07L1223.81 80.8467ZM1223.2 80.3072L1209.61 68.4641H1252.45L1269.74 80.3072H1223.2ZM1209.1 68.0273L1197.59 58.0082H1237.14L1251.79 68.0273H1209.07H1209.1ZM1197.15 57.6228L1187.29 49.0167H1224.05L1236.61 57.6228H1197.15ZM1186.91 48.6827L1178.35 41.2069H1212.67L1223.56 48.6827H1186.91ZM1178.02 40.9243L1170.52 34.3733H1202.7L1212.26 40.9243H1178.02ZM1170.24 34.1421L1163.61 28.3618H1193.89L1202.32 34.1421H1170.21H1170.24ZM1163.35 28.1563L1157.47 23.0183H1186.08L1193.58 28.1563H1163.35ZM1157.24 22.8128L1151.98 18.2143H1179.1L1185.8 22.8128H1157.24ZM1156.06 22.8128H1127.5L1123.72 18.2143H1150.85L1156.06 22.8128ZM1126.32 22.8128H1097.76L1095.47 18.2143H1122.59L1126.32 22.8128ZM1096.57 22.8128H1068.01L1067.24 18.2143H1094.37L1096.57 22.8128ZM1066.83 22.8128H1038.27L1038.99 18.2143H1066.11L1066.83 22.8128ZM1037.09 22.8128H1008.53L1010.74 18.2143H1037.86L1037.09 22.8128ZM1007.35 22.8128H978.786L982.51 18.2143H1009.63L1007.35 22.8128ZM977.604 22.8128H949.043L954.257 18.2143H981.38L977.604 22.8128ZM947.862 22.8128H919.301L926.004 18.2143H953.127L947.862 22.8128ZM947.631 23.0183L941.749 28.1563H911.518L919.018 23.0183H947.631ZM910.26 28.1563H880.029L889.199 23.0183H917.811L910.26 28.1563ZM909.926 28.3875L901.424 34.1678H869.319L879.618 28.3875H909.9H909.926ZM901.065 34.4247L891.433 40.9757H857.196L868.857 34.4247H901.039H901.065ZM891.022 41.2583L880.029 48.7341H843.378L856.708 41.2583H891.022ZM879.541 49.0424L866.879 57.6485H827.428L842.787 49.0424H879.541ZM866.314 58.0339L851.545 68.053H808.832L826.734 58.0339H866.288H866.314ZM850.878 68.5154L833.438 80.3586H786.898L808.036 68.5154H850.878ZM832.667 80.8981L811.786 95.079H760.623L785.947 80.8981H832.667ZM810.836 95.7212L785.357 113.036H728.594L759.493 95.7212H810.836ZM812.942 95.7212H864.285L844.431 113.036H787.668L812.916 95.7212H812.942ZM843.532 113.833L818.772 135.412H754.998L786.512 113.833H843.532ZM845.895 113.833H902.914L885.192 135.412H821.418L845.895 113.833ZM905.251 113.833H962.271L951.586 135.412H887.812L905.251 113.833ZM964.608 113.833H1021.63L1017.98 135.412H954.206L964.608 113.833ZM1023.96 113.833H1080.98L1084.35 135.412H1020.57L1023.94 113.833H1023.96ZM1083.32 113.833H1140.34L1150.74 135.412H1086.97L1083.32 113.833ZM1142.68 113.833H1199.7L1217.14 135.412H1153.36L1142.68 113.833ZM1202.03 113.833H1259.05L1283.53 135.412H1219.76L1202.03 113.833ZM1261.39 113.833H1318.41L1349.93 135.412H1286.15L1261.39 113.833ZM1260.49 113.036L1240.64 95.7212H1291.98L1317.23 113.036H1260.47H1260.49ZM1294.11 95.7212H1345.46L1376.35 113.036H1319.59L1294.11 95.7212ZM1293.16 95.079L1272.28 80.8981H1319L1344.33 95.079H1293.16ZM1271.48 80.3586L1254.05 68.5154H1296.89L1318.03 80.3586H1271.48ZM1253.4 68.0787L1238.63 58.0596H1278.19L1296.09 68.0787H1253.38H1253.4ZM1238.07 57.6742L1225.41 49.0681H1262.16L1277.52 57.6742H1238.07ZM1224.92 48.7341L1213.93 41.2583H1248.24L1261.57 48.7341H1224.92ZM1213.52 40.9757L1203.88 34.4247H1236.07L1247.73 40.9757H1213.49H1213.52ZM1203.52 34.1935L1195.02 28.4132H1225.3L1235.6 34.1935H1203.5H1203.52ZM1194.69 28.2077L1187.14 23.0697H1215.75L1224.92 28.2077H1194.69ZM1186.83 22.8642L1180.05 18.2656H1207.17L1215.36 22.8642H1186.8H1186.83ZM1179.79 18.0858L1173.7 13.9497H1199.47L1206.86 18.0858H1179.79ZM1178.69 18.0858H1151.62L1146.86 13.9497H1172.63L1178.66 18.0858H1178.69ZM1150.51 18.0858H1123.44L1120.05 13.9497H1145.81L1150.51 18.0858ZM1122.34 18.0858H1095.26L1093.21 13.9497H1118.97L1122.31 18.0858H1122.34ZM1094.16 18.0858H1067.09L1066.4 13.9497H1092.16L1094.16 18.0858ZM1065.98 18.0858H1038.91L1039.56 13.9497H1065.32L1065.96 18.0858H1065.98ZM1037.81 18.0858H1010.74L1012.74 13.9497H1038.5L1037.81 18.0858ZM1009.63 18.0858H982.561L985.9 13.9497H1011.66L1009.61 18.0858H1009.63ZM981.457 18.0858H954.386L959.086 13.9497H984.847L981.457 18.0858ZM953.281 18.0858H926.21L932.246 13.9497H958.007L953.255 18.0858H953.281ZM925.105 18.0858H898.034L905.431 13.9497H931.193L925.105 18.0858ZM924.849 18.2656L918.068 22.8642H889.507L897.726 18.2656H924.849ZM888.351 22.8642H859.79L869.499 18.2656H896.621L888.351 22.8642ZM887.991 23.0697L878.771 28.2077H848.54L859.379 23.0697H887.991ZM878.36 28.4389L867.983 34.2192H835.878L848.052 28.4389H878.334H878.36ZM867.521 34.4761L855.758 41.0271H821.52L835.313 34.4761H867.495H867.521ZM855.244 41.3096L841.811 48.7855H805.159L820.93 41.3096H855.244ZM841.22 49.0937L825.733 57.6999H786.281L804.44 49.0937H841.195H841.22ZM825.065 58.0853L807.034 68.1044H764.321L785.485 58.0853H825.039H825.065ZM806.212 68.5668L784.92 80.4099H738.38L763.371 68.5668H806.212ZM783.97 80.9494L758.465 95.1304H707.302L737.25 80.9494H783.97ZM757.309 95.7726L726.18 113.088H669.417L705.941 95.7726H757.284H757.309ZM724.767 113.884L685.958 135.464H622.184L667.748 113.884H724.767ZM727.13 113.884H784.15L752.378 135.464H688.604L727.13 113.884ZM750.888 136.466L710.153 164.134H637.415L686.806 136.466H750.888ZM753.534 136.466H817.616L785.896 164.134H713.158L753.534 136.466ZM820.262 136.466H884.344L861.639 164.134H788.901L820.262 136.466ZM886.99 136.466H951.072L937.383 164.134H864.644L886.99 136.466ZM953.718 136.466H1017.8L1013.13 164.134H940.388L953.744 136.466H953.718ZM1020.45 136.466H1084.53L1088.87 164.134H1016.13L1020.47 136.466H1020.45ZM1087.17 136.466H1151.26L1164.61 164.134H1091.87L1087.2 136.466H1087.17ZM1153.9 136.466H1217.98L1240.33 164.134H1167.59L1153.9 136.466ZM1220.63 136.466H1284.71L1316.07 164.134H1243.33L1220.63 136.466ZM1287.36 136.466H1351.44L1391.82 164.134H1319.08L1287.36 136.466ZM1354.09 136.466H1418.17L1467.56 164.134H1394.82L1354.09 136.466ZM1352.62 135.464L1320.85 113.884H1377.87L1416.4 135.464H1352.62ZM1380.21 113.884H1437.23L1482.79 135.464H1419.02L1380.21 113.884ZM1378.79 113.088L1347.67 95.7726H1399.01L1435.53 113.088H1378.77H1378.79ZM1346.51 95.1304L1321 80.9494H1367.72L1397.67 95.1304H1346.51ZM1320.05 80.4099L1298.76 68.5668H1341.6L1366.59 80.4099H1320.05ZM1297.97 68.1301L1279.94 58.111H1319.49L1340.65 68.1301H1297.94H1297.97ZM1279.24 57.7256L1263.75 49.1194H1300.51L1318.67 57.7256H1279.22H1279.24ZM1263.16 48.7855L1249.73 41.3096H1284.04L1299.81 48.7855H1263.16ZM1249.22 41.0271L1237.45 34.4761H1269.64L1283.43 41.0271H1249.19H1249.22ZM1237.02 34.2449L1226.64 28.4646H1256.92L1269.1 34.2449H1236.99H1237.02ZM1226.23 28.2591L1217.01 23.1211H1245.62L1256.46 28.2591H1226.23ZM1216.65 22.9156L1208.38 18.317H1235.5L1245.21 22.9156H1216.65ZM1208.07 18.1372L1200.62 14.0011H1226.38L1235.12 18.1372H1208.04H1208.07ZM1200.34 13.847L1193.61 10.0962H1218.16L1226.07 13.847H1200.36H1200.34ZM1199.29 13.847H1173.58L1168.05 10.0962H1192.61L1199.29 13.847ZM1172.52 13.847H1146.81L1142.52 10.0962H1167.08L1172.55 13.847H1172.52ZM1145.76 13.847H1120.05L1116.97 10.0962H1141.52L1145.76 13.847ZM1119 13.847H1093.29L1091.44 10.0962H1115.99L1119.02 13.847H1119ZM1092.23 13.847H1066.52L1065.88 10.0962H1090.44L1092.23 13.847ZM1065.47 13.847H1039.76L1040.35 10.0962H1064.91L1065.5 13.847H1065.47ZM1038.71 13.847H1013L1014.8 10.0962H1039.35L1038.71 13.847ZM1011.94 13.847H986.234L989.265 10.0962H1013.82L1011.97 13.847H1011.94ZM985.181 13.847H959.471L963.709 10.0962H988.263L985.181 13.847ZM958.418 13.847H932.708L938.179 10.0962H962.733L958.444 13.847H958.418ZM931.655 13.847H905.945L912.623 10.0962H937.177L931.655 13.847ZM904.892 13.847H879.182L887.093 10.0962H911.647L904.917 13.847H904.892ZM904.609 14.0011L897.161 18.1372H870.089L878.822 14.0011H904.584H904.609ZM868.985 18.1372H841.914L852.008 14.0011H877.769L868.985 18.1372ZM868.6 18.317L858.84 22.9156H830.279L841.477 18.317H868.6ZM858.403 23.1211L847.487 28.2591H817.257L829.765 23.1211H858.377H858.403ZM847.025 28.4903L834.773 34.2706H802.668L816.743 28.4903H847.025ZM834.234 34.5275L820.339 41.0784H786.102L802.026 34.5275H834.208H834.234ZM819.748 41.361L803.901 48.8368H767.249L785.434 41.361H819.748ZM803.182 49.1451L784.894 57.7513H745.443L766.427 49.1451H803.182ZM784.098 58.1366L762.806 68.1558H720.093L744.544 58.1366H784.098ZM761.855 68.6182L736.711 80.4613H690.17L719.014 68.6182H761.855ZM735.58 81.0008L705.453 95.1817H654.289L688.86 81.0008H735.58ZM704.091 95.824L667.337 113.139H610.574L652.748 95.824H704.091ZM665.642 113.935L619.795 135.515H556.021L608.623 113.935H665.642ZM617.663 136.517L558.897 164.185H486.159L553.581 136.517H617.663ZM620.309 136.517H684.391L634.641 164.185H561.903L620.309 136.517ZM632.278 165.495L566.192 202.258H481.536L559.129 165.495H632.278ZM635.283 165.495H708.432L654.315 202.258H569.659L635.283 165.495ZM711.437 165.495H784.586L742.438 202.258H657.782L711.437 165.495ZM787.591 165.495H860.74L830.561 202.258H745.905L787.566 165.495H787.591ZM863.745 165.495H936.895L918.684 202.258H834.029L863.72 165.495H863.745ZM939.9 165.495H1013.05L1006.83 202.258H922.177L939.9 165.495ZM1016.05 165.495H1089.2L1094.96 202.258H1010.3L1016.05 165.495ZM1092.21 165.495H1165.36L1183.08 202.258H1098.42L1092.21 165.495ZM1168.36 165.495H1241.51L1271.2 202.258H1186.55L1168.34 165.495H1168.36ZM1244.52 165.495H1317.67L1359.33 202.258H1274.67L1244.49 165.495H1244.52ZM1320.67 165.495H1393.82L1447.47 202.258H1362.82L1320.67 165.495ZM1396.82 165.495H1469.97L1535.6 202.258H1450.94L1396.82 165.495ZM1472.98 165.495H1546.13L1623.72 202.258H1539.06L1472.98 165.495ZM1470.64 164.185L1420.89 136.517H1484.97L1543.38 164.185H1470.64ZM1487.62 136.517H1551.7L1619.12 164.185H1546.39L1487.62 136.517ZM1485.49 135.515L1439.64 113.935H1496.66L1549.26 135.515H1485.49ZM1437.97 113.139L1401.22 95.824H1452.56L1494.73 113.139H1437.97ZM1399.86 95.1817L1369.73 81.0008H1416.45L1451.02 95.1817H1399.86ZM1368.6 80.4613L1343.45 68.6182H1386.29L1415.14 80.4613H1368.6ZM1342.5 68.1815L1321.21 58.1623H1360.76L1385.22 68.1815H1342.5ZM1320.39 57.777L1302.1 49.1708H1338.86L1359.84 57.777H1320.39ZM1301.41 48.8368L1285.56 41.361H1319.87L1338.06 48.8368H1301.41ZM1284.94 41.0784L1271.05 34.5275H1303.23L1319.16 41.0784H1284.92H1284.94ZM1270.51 34.2963L1258.26 28.516H1288.54L1302.61 34.2963H1270.51ZM1257.77 28.3105L1246.85 23.1725H1275.47L1287.97 28.3105H1257.74H1257.77ZM1246.44 22.9669L1236.68 18.3684H1263.81L1275 22.9669H1246.44ZM1236.3 18.1886L1227.51 14.0525H1253.27L1263.37 18.1886H1236.3ZM1227.15 13.8983L1219.19 10.1476H1243.75L1252.86 13.8983H1227.15ZM1218.88 9.99344L1211.64 6.57666H1235.06L1243.36 9.99344H1218.86H1218.88ZM1217.88 9.99344H1193.38L1187.24 6.57666H1210.66L1217.86 9.99344H1217.88ZM1192.38 9.99344H1167.87L1162.87 6.57666H1186.29L1192.38 9.99344ZM1166.87 9.99344H1142.37L1138.47 6.57666H1161.89L1166.87 9.99344ZM1141.37 9.99344H1116.87L1114.07 6.57666H1137.49L1141.34 9.99344H1141.37ZM1115.86 9.99344H1091.36L1089.67 6.57666H1113.09L1115.84 9.99344H1115.86ZM1090.36 9.99344H1065.86L1065.29 6.57666H1088.71L1090.36 9.99344ZM1064.85 9.99344H1040.35L1040.89 6.57666H1064.31L1064.85 9.99344ZM1039.35 9.99344H1014.85L1016.49 6.57666H1039.91L1039.35 9.99344ZM1013.84 9.99344H989.342L992.09 6.57666H1015.51L1013.82 9.99344H1013.84ZM988.34 9.99344H963.838L967.69 6.57666H991.114L988.315 9.99344H988.34ZM962.836 9.99344H938.333L943.316 6.57666H966.74L962.836 9.99344ZM937.331 9.99344H912.828L918.916 6.57666H942.34L937.331 9.99344ZM911.827 9.99344H887.324L894.515 6.57666H917.94L911.801 9.99344H911.827ZM886.322 9.99344H861.819L870.115 6.57666H893.539L886.296 9.99344H886.322ZM886.014 10.1476L878.052 13.8983H852.342L861.46 10.1476H886.014ZM851.289 13.8983H825.578L835.929 10.1476H860.484L851.314 13.8983H851.289ZM850.903 14.0525L840.758 18.1886H813.687L825.116 14.0525H850.878H850.903ZM840.321 18.3684L829.071 22.9669H800.51L813.198 18.3684H840.321ZM828.558 23.1725L815.973 28.3105H785.742L799.92 23.1725H828.532H828.558ZM815.433 28.5417L801.281 34.3219H769.175L785.125 28.5417H815.407H815.433ZM800.665 34.5788L784.637 41.1298H750.4L768.456 34.5788H800.639H800.665ZM783.944 41.4124L765.657 48.8882H729.005L749.63 41.4124H783.944ZM764.835 49.1965L743.748 57.8027H704.297L728.08 49.1965H764.835ZM742.823 58.188L718.243 68.2072H675.53L703.244 58.188H742.798H742.823ZM717.165 68.6696L688.167 80.5127H641.627L674.323 68.6696H717.165ZM686.857 81.0522L652.106 95.2331H600.943L640.137 81.0522H686.857ZM650.539 95.8754L608.135 113.19H551.372L599.171 95.8754H650.514H650.539ZM606.208 113.987L553.324 135.567H489.55L549.189 113.987H606.208ZM550.884 136.568L483.103 164.237H410.365L486.801 136.568H550.884ZM479.892 165.547L389.843 202.309H305.187L406.743 165.547H479.892ZM482.897 165.547H556.047L477.966 202.309H393.31L482.872 165.547H482.897ZM474.216 204.082L365.494 255.282H264.272L389.021 204.082H474.216ZM477.735 204.082H562.93L470.877 255.282H369.655L477.735 204.082ZM566.449 204.082H651.644L576.26 255.282H475.038L566.423 204.082H566.449ZM655.163 204.082H740.358L681.669 255.282H580.447L655.163 204.082ZM743.876 204.082H829.071L787.052 255.282H685.83L743.876 204.082ZM832.59 204.082H917.785L892.435 255.282H791.213L832.565 204.082H832.59ZM921.304 204.082H1006.5L997.818 255.282H896.596L921.278 204.082H921.304ZM1010.02 204.082H1095.21L1103.23 255.282H1002L1010.02 204.082ZM1098.73 204.082H1183.93L1208.61 255.282H1107.39L1098.71 204.082H1098.73ZM1187.45 204.082H1272.64L1313.99 255.282H1212.77L1187.42 204.082H1187.45ZM1276.16 204.082H1361.35L1419.4 255.282H1318.18L1276.16 204.082ZM1364.87 204.082H1450.07L1524.78 255.282H1423.56L1364.87 204.082ZM1453.59 204.082H1538.78L1630.17 255.282H1528.95L1453.56 204.082H1453.59ZM1542.3 204.082H1627.5L1735.58 255.282H1634.35L1542.3 204.082ZM1631.02 204.082H1716.21L1840.96 255.282H1739.74L1631.02 204.082ZM1627.27 202.309L1549.18 165.547H1622.33L1711.9 202.309H1627.24H1627.27ZM1625.36 165.547H1698.51L1800.07 202.309H1715.41L1625.36 165.547ZM1622.18 164.237L1554.4 136.568H1618.48L1694.92 164.237H1622.18ZM1551.93 135.567L1499.05 113.987H1556.07L1615.71 135.567H1551.93ZM1497.12 113.19L1454.72 95.8754H1506.06L1553.86 113.19H1497.1H1497.12ZM1453.15 95.2331L1418.4 81.0522H1465.12L1504.31 95.2331H1453.15ZM1417.09 80.5127L1388.09 68.6696H1430.93L1463.63 80.5127H1417.09ZM1386.99 68.2328L1362.41 58.2137H1401.96L1429.68 68.2328H1386.96H1386.99ZM1361.48 57.8284L1340.4 49.2222H1377.15L1400.93 57.8284H1361.48ZM1339.6 48.8882L1321.31 41.4124H1355.63L1376.25 48.8882H1339.6ZM1320.59 41.1298L1304.57 34.5788H1336.75L1354.81 41.1298H1320.57H1320.59ZM1303.95 34.3476L1289.8 28.5674H1320.08L1336.03 34.3476H1303.92H1303.95ZM1289.26 28.3618L1276.67 23.2238H1305.29L1319.46 28.3618H1289.23H1289.26ZM1276.19 23.0183L1264.94 18.4198H1292.06L1304.75 23.0183H1276.19ZM1264.47 18.24L1254.33 14.1039H1280.09L1291.52 18.24H1264.45H1264.47ZM1253.94 13.9497L1244.77 10.199H1269.33L1279.68 13.9497H1253.97H1253.94ZM1244.41 10.0448L1236.07 6.62804H1259.49L1268.89 10.0448H1244.39H1244.41ZM1235.73 6.49959L1228.1 3.39109H1250.53L1259.13 6.49959H1235.73ZM1234.76 6.49959H1211.36L1204.76 3.39109H1227.18L1234.76 6.49959ZM1210.41 6.49959H1187.01L1181.41 3.39109H1203.83L1210.41 6.49959ZM1186.06 6.49959H1162.66L1158.09 3.39109H1180.51L1186.06 6.49959ZM1161.71 6.49959H1138.31L1134.74 3.39109H1157.16L1161.71 6.49959ZM1137.36 6.49959H1113.96L1111.42 3.39109H1133.84L1137.36 6.49959ZM1113.01 6.49959H1089.61L1088.07 3.39109H1110.5L1113.01 6.49959ZM1088.66 6.49959H1065.27L1064.73 3.39109H1087.15L1088.64 6.49959H1088.66ZM1064.31 6.49959H1040.92L1041.4 3.39109H1063.83L1064.31 6.49959ZM1039.97 6.49959H1016.57L1018.06 3.39109H1040.48L1039.94 6.49959H1039.97ZM1015.62 6.49959H992.219L994.736 3.39109H1017.16L1015.62 6.49959ZM991.268 6.49959H967.87L971.389 3.39109H993.811L991.268 6.49959ZM966.92 6.49959H943.521L948.067 3.39109H970.49L966.92 6.49959ZM942.571 6.49959H919.172L924.72 3.39109H947.143L942.571 6.49959ZM918.222 6.49959H894.824L901.399 3.39109H923.821L918.222 6.49959ZM893.873 6.49959H870.475L878.052 3.39109H900.474L893.873 6.49959ZM869.524 6.49959H846.126L854.73 3.39109H877.153L869.524 6.49959ZM869.19 6.62804L860.843 10.0448H836.34L845.741 6.62804H869.165H869.19ZM835.339 10.0448H810.836L821.366 6.62804H844.79L835.339 10.0448ZM834.928 10.199L824.525 13.9497H798.815L810.373 10.199H834.928ZM824.089 14.1039L812.608 18.24H785.536L798.327 14.1039H824.089ZM812.094 18.4198L799.329 23.0183H770.768L784.971 18.4198H812.094ZM798.79 23.2238L784.535 28.3618H754.304L770.151 23.2238H798.764H798.79ZM783.918 28.5931L767.891 34.3733H735.786L753.611 28.5931H783.893H783.918ZM767.198 34.6302L749.065 41.1812H714.827L735.015 34.6302H767.198ZM748.243 41.4638L727.516 48.9396H690.864L713.928 41.4638H748.243ZM726.617 49.2479L702.73 57.8541H663.279L689.862 49.2479H726.617ZM701.677 58.2394L673.835 68.2585H631.122L662.097 58.2394H701.651H701.677ZM672.602 68.721L639.752 80.5641H593.212L629.786 68.721H672.628H672.602ZM638.262 81.1036L598.888 95.2845H547.725L591.542 81.1036H638.262ZM597.116 95.9268L549.086 113.242H492.324L545.773 95.9268H597.116ZM546.877 114.038L486.981 135.618H423.207L489.858 114.038H546.877ZM484.182 136.62L407.385 164.288H334.647L420.099 136.62H484.182ZM403.764 165.598L301.745 202.361H217.09L330.615 165.598H403.764ZM296.84 204.133L154.754 255.334H53.5316L211.645 204.133H296.84ZM300.359 204.133H385.554L260.137 255.334H158.915L300.333 204.133H300.359ZM253.947 257.851L67.247 334.074H-58.6064L151.928 257.851H253.947ZM258.159 257.851H360.177L198.314 334.074H72.4609L258.159 257.851ZM364.364 257.851H466.382L329.33 334.074H203.477L364.364 257.851ZM470.569 257.851H572.587L460.372 334.074H334.519L470.569 257.851ZM576.774 257.851H678.792L591.414 334.074H465.56L576.8 257.851H576.774ZM682.979 257.851H784.997L722.43 334.074H596.577L682.979 257.851ZM789.184 257.851H891.202L853.472 334.074H727.618L789.184 257.851ZM895.389 257.851H997.407L984.513 334.074H858.66L895.414 257.851H895.389ZM1001.59 257.851H1103.61L1115.53 334.074H989.676L1001.59 257.851ZM1107.8 257.851H1209.82L1246.57 334.074H1120.72L1107.82 257.851H1107.8ZM1214 257.851H1316.02L1377.59 334.074H1251.73L1214 257.851ZM1320.21 257.851H1422.23L1508.63 334.074H1382.78L1320.21 257.851ZM1426.41 257.851H1528.43L1639.67 334.074H1513.82L1426.44 257.851H1426.41ZM1532.62 257.851H1634.64L1770.69 334.074H1644.83L1532.62 257.851ZM1638.82 257.851H1740.84L1901.73 334.074H1775.88L1638.82 257.851ZM1745.03 257.851H1847.05L2032.74 334.074H1906.89L1745.03 257.851ZM1851.23 257.851H1953.25L2163.79 334.074H2037.93L1851.23 257.851ZM1845.04 255.334L1719.63 204.133H1804.82L1946.24 255.334H1845.02H1845.04ZM1808.34 204.133H1893.53L2051.65 255.334H1950.43L1808.34 204.133ZM1803.43 202.361L1701.42 165.598H1774.56L1888.09 202.361H1803.43ZM1697.79 164.288L1621 136.62H1685.08L1770.53 164.288H1697.79ZM1618.22 135.618L1558.33 114.038H1615.35L1682 135.618H1618.22ZM1556.12 113.242L1508.09 95.9268H1559.43L1612.88 113.242H1556.12ZM1506.29 95.2845L1466.92 81.1036H1513.64L1557.45 95.2845H1506.29ZM1465.45 80.5641L1432.6 68.721H1475.44L1512.02 80.5641H1465.48H1465.45ZM1431.34 68.2842L1403.5 58.2651H1443.06L1474.03 68.2842H1431.32H1431.34ZM1402.45 57.8797L1378.56 49.2736H1415.32L1441.9 57.8797H1402.45ZM1377.64 48.9396L1356.91 41.4638H1391.23L1414.29 48.9396H1377.64ZM1356.11 41.1812L1337.98 34.6302H1370.16L1390.35 41.1812H1356.11ZM1337.26 34.399L1321.24 28.6187H1351.52L1369.34 34.399H1337.24H1337.26ZM1320.62 28.4132L1306.36 23.2752H1334.98L1350.82 28.4132H1320.59H1320.62ZM1305.82 23.0697L1293.06 18.4712H1320.18L1334.39 23.0697H1305.82ZM1292.57 18.2913L1281.09 14.1552H1306.85L1319.64 18.2913H1292.57ZM1280.63 14.0011L1270.23 10.2503H1294.78L1306.34 14.0011H1280.63ZM1269.82 10.0962L1260.36 6.67942H1283.79L1294.32 10.0962H1269.82ZM1259.98 6.55097L1251.35 3.44247H1273.77L1283.38 6.55097H1259.98ZM1250.99 3.31402L1243.08 0.462421H1264.55L1273.36 3.31402H1250.99ZM1250.06 3.31402H1227.69L1220.71 0.462421H1242.18L1250.06 3.31402ZM1226.77 3.31402H1204.4L1198.34 0.462421H1219.81L1226.77 3.31402ZM1203.47 3.31402H1181.1L1175.96 0.462421H1197.44L1203.47 3.31402ZM1180.18 3.31402H1157.81L1153.59 0.462421H1175.07L1180.15 3.31402H1180.18ZM1156.88 3.31402H1134.51L1131.25 0.462421H1152.72L1156.88 3.31402ZM1133.59 3.31402H1111.21L1108.88 0.462421H1130.35L1133.59 3.31402ZM1110.29 3.31402H1087.92L1086.51 0.462421H1107.98L1110.29 3.31402ZM1086.99 3.31402H1064.62L1064.14 0.462421H1085.61L1086.99 3.31402ZM1063.7 3.31402H1041.33L1041.76 0.462421H1063.24L1063.67 3.31402H1063.7ZM1040.4 3.31402H1018.03L1019.42 0.462421H1040.89L1040.4 3.31402ZM1017.11 3.31402H994.736L997.047 0.462421H1018.52L1017.11 3.31402ZM993.811 3.31402H971.44L974.676 0.462421H996.148L993.811 3.31402ZM970.515 3.31402H948.144L952.305 0.462421H973.777L970.515 3.31402ZM947.22 3.31402H924.849L929.934 0.462421H951.406L947.194 3.31402H947.22ZM923.924 3.31402H901.553L907.589 0.462421H929.061L923.924 3.31402ZM900.628 3.31402H878.257L885.218 0.462421H906.69L900.628 3.31402ZM877.333 3.31402H854.961L862.846 0.462421H884.319L877.333 3.31402ZM854.037 3.31402H831.666L840.475 0.462421H861.948L854.037 3.31402ZM853.703 3.44247L845.073 6.55097H821.674L831.28 3.44247H853.703ZM820.724 6.55097H797.326L807.959 3.44247H830.381L820.724 6.55097ZM820.313 6.67942L809.757 10.0962H785.254L796.889 6.67942H820.313ZM809.295 10.2247L797.685 13.9754H771.975L784.766 10.2247H809.32H809.295ZM797.172 14.1295L784.329 18.2656H757.258L771.384 14.1295H797.146H797.172ZM783.79 18.4455L769.535 23.044H740.974L756.667 18.4455H783.79ZM768.919 23.2495L752.994 28.3875H722.764L740.306 23.2495H768.919ZM752.301 28.6187L734.399 34.399H702.293L721.993 28.6187H752.275H752.301ZM733.603 34.6559L713.338 41.2069H679.1L701.42 34.6559H733.603ZM712.439 41.4895L689.297 48.9653H652.645L678.124 41.4895H712.439ZM688.27 49.2736L661.584 57.8797H622.132L651.515 49.2736H688.27ZM660.402 58.2651L629.298 68.2842H586.585L620.823 58.2651H660.376H660.402ZM627.911 68.7467L591.183 80.5898H544.643L585.07 68.7467H627.911ZM589.539 81.1293L545.542 95.3102H494.378L542.819 81.1293H589.539ZM543.538 95.9524L489.858 113.268H433.095L492.169 95.9524H543.512H543.538ZM487.418 114.064L420.484 135.644H356.71L430.399 114.064H487.418ZM417.377 136.646L331.565 164.314H258.827L353.294 136.646H417.377ZM327.507 165.624L213.52 202.386H128.864L254.358 165.624H327.507ZM208.049 204.159L49.2936 255.359H-51.9285L122.854 204.159H208.049ZM41.4343 257.877L-194.913 334.099H-320.767L-60.5841 257.877H41.4343ZM45.6464 257.877H147.665L-63.846 334.099H-189.7L45.6722 257.877H45.6464ZM-74.7363 338.004L-422.991 463.5H-589.426L-201.9 338.004H-74.8133H-74.7363ZM-69.4966 338.004H57.5897L-249.801 463.5H-416.133L-69.4966 338.004ZM62.8293 338.004H189.916L-76.5855 463.5H-242.918L62.855 338.004H62.8293ZM195.155 338.004H322.242L96.6042 463.5H-69.7278L195.155 338.004ZM327.481 338.004H454.568L269.82 463.5H103.488L327.507 338.004H327.481ZM459.807 338.004H586.893L443.01 463.5H276.677L459.807 338.004ZM592.133 338.004H719.219L616.225 463.5H449.893L592.159 338.004H592.133ZM724.459 338.004H851.545L789.415 463.5H623.083L724.459 338.004ZM856.785 338.004H983.871L962.63 463.5H796.298L856.811 338.004H856.785ZM989.111 338.004H1116.2L1135.82 463.5H969.488L989.111 338.004ZM1121.44 338.004H1248.52L1309.04 463.5H1142.7L1121.46 338.004H1121.44ZM1253.76 338.004H1380.85L1482.23 463.5H1315.89L1253.76 338.004ZM1386.09 338.004H1513.18L1655.44 463.5H1489.11L1386.11 338.004H1386.09ZM1518.41 338.004H1645.5L1828.63 463.5H1662.3L1518.41 338.004ZM1650.74 338.004H1777.83L2001.85 463.5H1835.51L1650.77 338.004H1650.74ZM1783.07 338.004H1910.15L2175.04 463.5H2008.7L1783.07 338.004ZM1915.39 338.004H2042.48L2348.25 463.5H2181.92L1915.42 338.004H1915.39ZM2047.72 338.004H2174.8L2521.44 463.5H2355.11L2047.72 338.004ZM2180.04 338.004H2307.13L2694.66 463.5H2528.32L2180.07 338.004H2180.04ZM2169.18 334.099L1957.67 257.877H2059.69L2295.06 334.099H2169.21H2169.18ZM2063.87 257.877H2165.89L2426.07 334.099H2300.22L2063.87 257.877ZM2056.04 255.359L1897.28 204.159H1982.48L2157.26 255.359H2056.04ZM1891.79 202.386L1777.8 165.624H1850.95L1976.44 202.386H1891.79ZM1773.74 164.314L1687.93 136.646H1752.01L1846.48 164.314H1773.74ZM1684.82 135.644L1617.89 114.064H1674.91L1748.6 135.644H1684.82ZM1615.42 113.268L1561.74 95.9524H1613.09L1672.16 113.268H1615.4H1615.42ZM1559.77 95.3102L1515.77 81.1293H1562.49L1610.93 95.3102H1559.77ZM1514.13 80.5898L1477.4 68.7467H1520.24L1560.67 80.5898H1514.13ZM1476.01 68.3099L1444.91 58.2908H1484.46L1518.7 68.3099H1475.98H1476.01ZM1443.72 57.9054L1417.04 49.2993H1453.79L1483.18 57.9054H1443.72ZM1416.01 48.9653L1392.87 41.4895H1427.18L1452.66 48.9653H1416.01ZM1391.97 41.2069L1371.71 34.6559H1403.89L1426.21 41.2069H1391.97ZM1370.91 34.4247L1353.01 28.6444H1383.29L1402.99 34.4247H1370.88H1370.91ZM1352.31 28.4389L1336.39 23.3009H1365L1382.54 28.4389H1352.31ZM1335.77 23.0954L1321.52 18.4969H1348.64L1364.33 23.0954H1335.77ZM1320.95 18.317L1308.11 14.1809H1333.87L1348 18.317H1320.93H1320.95ZM1307.62 14.0268L1296.01 10.276H1320.57L1333.36 14.0268H1307.65H1307.62ZM1295.55 10.1219L1284.99 6.70511H1308.42L1320.05 10.1219H1295.55ZM1284.56 6.57666L1274.9 3.46816H1297.32L1307.96 6.57666H1284.56ZM839.551 0.10276L830.69 2.95436H808.319L818.053 0.10276H839.525H839.551ZM-334.226 337.645H-207.139L-596.283 463.141H-762.615L-334.226 337.645ZM2701.28 463.141L2312.14 337.645H2439.23L2867.62 463.141H2701.28Z" fill="url(#paint0_linear_59_13)"/>
<defs>
<linearGradient id="paint0_linear_59_13" x1="1052.5" y1="470" x2="1052.5" y2="0" gradientUnits="userSpaceOnUse">
<stop stop-color="#A42AEE"/>
<stop offset="1" stop-color="#2900A9" stop-opacity="0"/>
</linearGradient>
</defs>
</svg>
