<svg width="1920" height="470" viewBox="0 0 1920 470" fill="none" xmlns="http://www.w3.org/2000/svg">
<g clip-path="url(#clip0_409_26)">
<path style="mix-blend-mode:lighten" d="M796.565 470L-814 3.05176e-05H2877L1266.44 470H796.539H796.565ZM1275.68 467.046H1253.31L1244.45 469.897H1265.92L1275.66 467.046H1275.68ZM1011.77 412.48L1013.11 421.086H1049.86L1051.2 412.48H1011.75H1011.77ZM1051.28 412.095L1052.84 402.075H1010.13L1011.7 412.095H1051.25H1051.28ZM1010.13 412.48H970.679L974.84 421.086H1011.59L1010.13 412.48ZM1013.16 421.42L1014.32 428.896H1048.63L1049.79 421.42H1013.14H1013.16ZM1051.38 421.086H1088.13L1092.29 412.48H1052.84L1051.38 421.086ZM1051.33 421.42L1050.07 428.896H1084.38L1087.98 421.42H1051.33ZM1050.02 429.178L1048.91 435.729H1081.1L1084.26 429.178H1050.02ZM1048.61 429.178H1014.37L1015.4 435.729H1047.58L1048.61 429.178ZM1012.98 429.178H978.744L981.903 435.729H1014.09L1012.98 429.178ZM1012.93 428.896L1011.67 421.42H975.02L978.616 428.896H1012.93ZM973.505 421.42H936.853L942.889 428.896H977.203L973.505 421.42ZM973.351 421.086L969.087 412.48H929.636L936.596 421.086H973.351ZM968.907 412.095L963.95 402.075H921.237L929.353 412.095H968.907ZM970.551 412.095H1010.1L1008.41 402.075H965.697L970.525 412.095H970.551ZM1008.33 401.613L1006.33 389.77H959.789L965.491 401.613H1008.33ZM1010.1 401.613H1052.95L1054.8 389.77H1008.26L1010.1 401.613ZM1054.72 401.613H1097.56L1103.26 389.77H1056.72L1054.72 401.613ZM1054.64 402.05L1052.95 412.069H1092.5L1097.33 402.05H1054.62H1054.64ZM1094.14 412.069H1133.7L1141.81 402.05H1099.1L1094.14 412.069ZM1093.96 412.454L1089.7 421.06H1126.46L1133.42 412.454H1093.96ZM1089.55 421.394L1085.85 428.87H1120.16L1126.2 421.394H1089.55ZM1085.72 429.153L1082.48 435.704H1114.67L1119.96 429.153H1085.72ZM1082.36 435.935L1079.5 441.715H1109.79L1114.46 435.935H1082.36ZM1081.02 435.935H1048.91L1047.94 441.715H1078.22L1080.99 435.935H1081.02ZM1047.6 435.935H1015.5L1016.4 441.715H1046.68L1047.58 435.935H1047.6ZM1014.19 435.935H982.083L984.857 441.715H1015.14L1014.16 435.935H1014.19ZM980.773 435.935H948.668L953.342 441.715H983.624L980.773 435.935ZM980.645 435.678L977.409 429.127H943.171L948.462 435.678H980.645ZM941.759 429.127H907.521L914.944 435.678H947.127L941.759 429.127ZM941.528 428.844L935.389 421.369H898.737L907.213 428.844H941.528ZM935.132 421.06L928.069 412.454H888.618L898.378 421.06H935.132ZM927.761 412.069L919.516 402.05H876.803L888.181 412.069H927.735H927.761ZM919.156 401.587L909.448 389.744H862.908L876.341 401.587H919.182H919.156ZM920.929 401.587H963.77L957.914 389.744H911.374L920.929 401.587ZM957.657 389.205L950.646 375.024H899.482L910.938 389.205H957.657ZM959.584 389.205H1006.3L1003.89 375.024H952.726L959.558 389.205H959.584ZM1008.23 389.205H1054.95L1057.16 375.024H1006L1008.2 389.205H1008.23ZM1056.88 389.205H1103.6L1110.43 375.024H1059.26L1056.85 389.205H1056.88ZM1105.52 389.205H1152.24L1163.7 375.024H1112.53L1105.52 389.205ZM1105.27 389.744L1099.41 401.587H1142.25L1151.81 389.744H1105.27ZM1144.02 401.587H1186.86L1200.3 389.744H1153.76L1144.05 401.587H1144.02ZM1143.66 402.024L1135.42 412.043H1174.97L1186.35 402.024H1143.64H1143.66ZM1135.11 412.429L1128.05 421.035H1164.8L1174.56 412.429H1135.11ZM1127.77 421.369L1121.63 428.844H1155.94L1164.42 421.369H1127.77ZM1121.4 429.127L1116.03 435.678H1148.21L1155.63 429.127H1121.4ZM1115.82 435.909L1111.1 441.69H1141.38L1147.93 435.909H1115.82ZM1110.89 441.895L1106.68 447.033H1135.29L1141.12 441.895H1110.89ZM1109.63 441.895H1079.4L1076.86 447.033H1105.47L1109.63 441.895ZM1078.17 441.895H1047.94L1047.06 447.033H1075.68L1078.14 441.895H1078.17ZM1046.71 441.895H1016.47L1017.27 447.033H1045.88L1046.68 441.895H1046.71ZM1015.24 441.895H985.011L987.477 447.033H1016.09L1015.22 441.895H1015.24ZM983.778 441.895H953.548L957.709 447.033H986.321L983.778 441.895ZM952.315 441.895H922.084L927.915 447.033H956.527L952.315 441.895ZM952.135 441.664L947.409 435.884H915.304L921.853 441.664H952.135ZM913.968 435.884H881.863L890.287 441.664H920.569L913.943 435.884H913.968ZM913.686 435.627L906.186 429.076H871.948L881.503 435.627H913.686ZM905.852 428.793L897.299 421.317H860.647L871.538 428.793H905.852ZM896.914 421.009L887.051 412.403H847.6L860.159 421.009H896.914ZM886.614 412.017L875.108 401.998H832.395L847.035 412.017H886.589H886.614ZM874.594 401.536L861.007 389.693H814.467L831.753 401.536H874.594ZM860.416 389.153L844.158 374.972H792.995L813.696 389.153H860.416ZM862.343 389.153H909.062L897.427 374.972H846.264L862.343 389.153ZM896.888 374.33L882.685 357.015H825.922L845.545 374.33H896.888ZM898.994 374.33H950.337L941.759 357.015H884.996L898.969 374.33H898.994ZM952.469 374.33H1003.81L1000.88 357.015H944.122L952.469 374.33ZM1005.94 374.33H1057.29L1059.98 357.015H1003.22L1005.92 374.33H1005.94ZM1059.42 374.33H1110.76L1119.11 357.015H1062.35L1059.42 374.33ZM1112.89 374.33H1164.24L1178.21 357.015H1121.45L1112.87 374.33H1112.89ZM1166.37 374.33H1217.71L1237.33 357.015H1180.57L1166.37 374.33ZM1165.83 374.972L1154.19 389.153H1200.91L1216.99 374.972H1165.83ZM1202.81 389.153H1249.53L1270.24 374.972H1219.07L1202.81 389.153ZM1202.2 389.693L1188.61 401.536H1231.45L1248.74 389.693H1202.2ZM1188.1 401.973L1176.59 411.992H1216.14L1230.79 401.973H1188.07H1188.1ZM1176.15 412.377L1166.29 420.983H1203.05L1215.61 412.377H1176.15ZM1165.91 421.317L1157.35 428.793H1191.67L1202.56 421.317H1165.91ZM1157.02 429.076L1149.52 435.627H1181.7L1191.26 429.076H1157.02ZM1149.24 435.858L1142.61 441.638H1172.89L1181.32 435.858H1149.21H1149.24ZM1142.35 441.844L1136.47 446.982H1165.08L1172.58 441.844H1142.35ZM1136.24 447.187L1130.98 451.786H1158.1L1164.8 447.187H1136.24ZM1135.06 447.187H1106.5L1102.72 451.786H1129.85L1135.06 447.187ZM1105.32 447.187H1076.76L1074.47 451.786H1101.59L1105.32 447.187ZM1075.57 447.187H1047.01L1046.24 451.786H1073.37L1075.57 447.187ZM1045.83 447.187H1017.27L1017.99 451.786H1045.11L1045.83 447.187ZM1016.09 447.187H987.528L989.737 451.786H1016.86L1016.09 447.187ZM986.347 447.187H957.786L961.51 451.786H988.633L986.347 447.187ZM956.604 447.187H928.043L933.257 451.786H960.38L956.604 447.187ZM926.862 447.187H898.301L905.004 451.786H932.127L926.862 447.187ZM926.631 446.982L920.749 441.844H890.518L898.018 446.982H926.631ZM889.26 441.844H859.029L868.199 446.982H896.811L889.26 441.844ZM888.926 441.612L880.424 435.832H848.319L858.618 441.612H888.9H888.926ZM880.065 435.575L870.433 429.024H836.196L847.857 435.575H880.039H880.065ZM870.022 428.742L859.029 421.266H822.378L835.708 428.742H870.022ZM858.541 420.958L845.879 412.351H806.428L821.787 420.958H858.541ZM845.314 411.966L830.545 401.947H787.832L805.734 411.966H845.288H845.314ZM829.878 401.485L812.438 389.641H765.898L787.036 401.485H829.878ZM811.667 389.102L790.786 374.921H739.623L764.947 389.102H811.667ZM789.836 374.279L764.357 356.964H707.594L738.493 374.279H789.836ZM791.942 374.279H843.285L823.431 356.964H766.668L791.916 374.279H791.942ZM822.532 356.167L797.772 334.588H733.998L765.512 356.167H822.532ZM824.895 356.167H881.914L864.192 334.588H800.418L824.895 356.167ZM884.251 356.167H941.271L930.586 334.588H866.812L884.251 356.167ZM943.608 356.167H1000.63L996.98 334.588H933.206L943.608 356.167ZM1002.96 356.167H1059.98L1063.35 334.588H999.574L1002.94 356.167H1002.96ZM1062.32 356.167H1119.34L1129.74 334.588H1065.97L1062.32 356.167ZM1121.68 356.167H1178.7L1196.14 334.588H1132.36L1121.68 356.167ZM1181.03 356.167H1238.05L1262.53 334.588H1198.76L1181.03 356.167ZM1240.39 356.167H1297.41L1328.93 334.588H1265.15L1240.39 356.167ZM1239.49 356.964L1219.64 374.279H1270.98L1296.23 356.964H1239.47H1239.49ZM1273.11 374.279H1324.46L1355.35 356.964H1298.59L1273.11 374.279ZM1272.16 374.921L1251.28 389.102H1298L1323.33 374.921H1272.16ZM1250.48 389.641L1233.05 401.485H1275.89L1297.03 389.641H1250.48ZM1232.4 401.921L1217.63 411.94H1257.19L1275.09 401.921H1232.38H1232.4ZM1217.07 412.326L1204.41 420.932H1241.16L1256.52 412.326H1217.07ZM1203.92 421.266L1192.93 428.742H1227.24L1240.57 421.266H1203.92ZM1192.52 429.024L1182.88 435.575H1215.07L1226.73 429.024H1192.49H1192.52ZM1182.52 435.807L1174.02 441.587H1204.3L1214.6 435.807H1182.5H1182.52ZM1173.69 441.792L1166.14 446.93H1194.75L1203.92 441.792H1173.69ZM1165.83 447.136L1159.05 451.734H1186.17L1194.36 447.136H1165.8H1165.83ZM1158.79 451.914L1152.7 456.05H1178.47L1185.86 451.914H1158.79ZM1157.69 451.914H1130.62L1125.86 456.05H1151.63L1157.66 451.914H1157.69ZM1129.51 451.914H1102.44L1099.05 456.05H1124.81L1129.51 451.914ZM1101.34 451.914H1074.26L1072.21 456.05H1097.97L1101.31 451.914H1101.34ZM1073.16 451.914H1046.09L1045.4 456.05H1071.16L1073.16 451.914ZM1044.98 451.914H1017.91L1018.56 456.05H1044.32L1044.96 451.914H1044.98ZM1016.81 451.914H989.737L991.74 456.05H1017.5L1016.81 451.914ZM988.633 451.914H961.561L964.9 456.05H990.662L988.607 451.914H988.633ZM960.457 451.914H933.386L938.086 456.05H963.847L960.457 451.914ZM932.281 451.914H905.21L911.246 456.05H937.007L932.255 451.914H932.281ZM904.105 451.914H877.034L884.431 456.05H910.193L904.105 451.914ZM903.849 451.734L897.068 447.136H868.507L876.726 451.734H903.849ZM867.351 447.136H838.79L848.499 451.734H875.621L867.351 447.136ZM866.991 446.93L857.771 441.792H827.54L838.379 446.93H866.991ZM857.36 441.561L846.983 435.781H814.878L827.052 441.561H857.334H857.36ZM846.521 435.524L834.758 428.973H800.52L814.313 435.524H846.495H846.521ZM834.244 428.69L820.811 421.215H784.159L799.93 428.69H834.244ZM820.22 420.906L804.733 412.3H765.281L783.44 420.906H820.195H820.22ZM804.065 411.915L786.034 401.896H743.321L764.485 411.915H804.039H804.065ZM785.212 401.433L763.92 389.59H717.38L742.371 401.433H785.212ZM762.97 389.051L737.465 374.87H686.302L716.25 389.051H762.97ZM736.309 374.227L705.18 356.912H648.417L684.941 374.227H736.284H736.309ZM703.767 356.116L664.958 334.536H601.184L646.748 356.116H703.767ZM706.13 356.116H763.15L731.378 334.536H667.604L706.13 356.116ZM729.888 333.534L689.153 305.866H616.415L665.806 333.534H729.888ZM732.534 333.534H796.616L764.896 305.866H692.158L732.534 333.534ZM799.262 333.534H863.344L840.639 305.866H767.901L799.262 333.534ZM865.99 333.534H930.072L916.383 305.866H843.644L865.99 333.534ZM932.718 333.534H996.8L992.126 305.866H919.388L932.744 333.534H932.718ZM999.446 333.534H1063.53L1067.87 305.866H995.131L999.472 333.534H999.446ZM1066.17 333.534H1130.26L1143.61 305.866H1070.87L1066.2 333.534H1066.17ZM1132.9 333.534H1196.98L1219.33 305.866H1146.59L1132.9 333.534ZM1199.63 333.534H1263.71L1295.07 305.866H1222.33L1199.63 333.534ZM1266.36 333.534H1330.44L1370.82 305.866H1298.08L1266.36 333.534ZM1333.09 333.534H1397.17L1446.56 305.866H1373.82L1333.09 333.534ZM1331.62 334.536L1299.85 356.116H1356.87L1395.4 334.536H1331.62ZM1359.21 356.116H1416.23L1461.79 334.536H1398.02L1359.21 356.116ZM1357.79 356.912L1326.67 374.227H1378.01L1414.53 356.912H1357.77H1357.79ZM1325.51 374.87L1300 389.051H1346.72L1376.67 374.87H1325.51ZM1299.05 389.59L1277.76 401.433H1320.6L1345.59 389.59H1299.05ZM1276.97 401.87L1258.94 411.889H1298.49L1319.65 401.87H1276.94H1276.97ZM1258.24 412.274L1242.75 420.881H1279.51L1297.67 412.274H1258.22H1258.24ZM1242.16 421.215L1228.73 428.69H1263.04L1278.81 421.215H1242.16ZM1228.22 428.973L1216.45 435.524H1248.64L1262.43 428.973H1228.19H1228.22ZM1216.02 435.755L1205.64 441.535H1235.92L1248.1 435.755H1215.99H1216.02ZM1205.23 441.741L1196.01 446.879H1224.62L1235.46 441.741H1205.23ZM1195.65 447.084L1187.38 451.683H1214.5L1224.21 447.084H1195.65ZM1187.07 451.863L1179.62 455.999H1205.38L1214.12 451.863H1187.04H1187.07ZM1179.34 456.153L1172.61 459.904H1197.16L1205.07 456.153H1179.36H1179.34ZM1178.29 456.153H1152.58L1147.05 459.904H1171.61L1178.29 456.153ZM1151.52 456.153H1125.81L1121.52 459.904H1146.08L1151.55 456.153H1151.52ZM1124.76 456.153H1099.05L1095.97 459.904H1120.52L1124.76 456.153ZM1098 456.153H1072.29L1070.44 459.904H1094.99L1098.02 456.153H1098ZM1071.23 456.153H1045.52L1044.88 459.904H1069.44L1071.23 456.153ZM1044.47 456.153H1018.76L1019.35 459.904H1043.91L1044.5 456.153H1044.47ZM1017.71 456.153H991.997L993.795 459.904H1018.35L1017.71 456.153ZM990.944 456.153H965.234L968.265 459.904H992.819L990.97 456.153H990.944ZM964.181 456.153H938.471L942.709 459.904H967.263L964.181 456.153ZM937.418 456.153H911.708L917.179 459.904H941.733L937.444 456.153H937.418ZM910.655 456.153H884.945L891.623 459.904H916.177L910.655 456.153ZM883.892 456.153H858.182L866.093 459.904H890.647L883.917 456.153H883.892ZM883.609 455.999L876.161 451.863H849.089L857.822 455.999H883.584H883.609ZM847.985 451.863H820.914L831.008 455.999H856.769L847.985 451.863ZM847.6 451.683L837.84 447.084H809.279L820.477 451.683H847.6ZM837.403 446.879L826.487 441.741H796.257L808.765 446.879H837.377H837.403ZM826.025 441.51L813.773 435.729H781.668L795.743 441.51H826.025ZM813.234 435.473L799.339 428.922H765.102L781.026 435.473H813.208H813.234ZM798.748 428.639L782.901 421.163H746.249L764.434 428.639H798.748ZM782.182 420.855L763.894 412.249H724.443L745.427 420.855H782.182ZM763.098 411.863L741.806 401.844H699.093L723.544 411.863H763.098ZM740.855 401.382L715.711 389.539H669.17L698.014 401.382H740.855ZM714.58 388.999L684.453 374.818H633.289L667.86 388.999H714.58ZM683.091 374.176L646.337 356.861H589.574L631.748 374.176H683.091ZM644.642 356.065L598.795 334.485H535.021L587.623 356.065H644.642ZM596.663 333.483L537.897 305.815H465.159L532.581 333.483H596.663ZM599.309 333.483H663.391L613.641 305.815H540.903L599.309 333.483ZM611.278 304.505L545.192 267.742H460.536L538.129 304.505H611.278ZM614.283 304.505H687.432L633.315 267.742H548.659L614.283 304.505ZM690.437 304.505H763.586L721.438 267.742H636.782L690.437 304.505ZM766.591 304.505H839.74L809.561 267.742H724.905L766.566 304.505H766.591ZM842.745 304.505H915.895L897.684 267.742H813.029L842.72 304.505H842.745ZM918.9 304.505H992.049L985.833 267.742H901.177L918.9 304.505ZM995.054 304.505H1068.2L1073.96 267.742H989.3L995.054 304.505ZM1071.21 304.505H1144.36L1162.08 267.742H1077.42L1071.21 304.505ZM1147.36 304.505H1220.51L1250.2 267.742H1165.55L1147.34 304.505H1147.36ZM1223.52 304.505H1296.67L1338.33 267.742H1253.67L1223.49 304.505H1223.52ZM1299.67 304.505H1372.82L1426.47 267.742H1341.82L1299.67 304.505ZM1375.82 304.505H1448.97L1514.6 267.742H1429.94L1375.82 304.505ZM1451.98 304.505H1525.13L1602.72 267.742H1518.06L1451.98 304.505ZM1449.64 305.815L1399.89 333.483H1463.97L1522.38 305.815H1449.64ZM1466.62 333.483H1530.7L1598.12 305.815H1525.39L1466.62 333.483ZM1464.49 334.485L1418.64 356.065H1475.66L1528.26 334.485H1464.49ZM1416.97 356.861L1380.22 374.176H1431.56L1473.73 356.861H1416.97ZM1378.86 374.818L1348.73 388.999H1395.45L1430.02 374.818H1378.86ZM1347.6 389.539L1322.45 401.382H1365.29L1394.14 389.539H1347.6ZM1321.5 401.819L1300.21 411.838H1339.76L1364.22 401.819H1321.5ZM1299.39 412.223L1281.1 420.829H1317.86L1338.84 412.223H1299.39ZM1280.41 421.163L1264.56 428.639H1298.87L1317.06 421.163H1280.41ZM1263.94 428.922L1250.05 435.473H1282.23L1298.16 428.922H1263.92H1263.94ZM1249.51 435.704L1237.26 441.484H1267.54L1281.61 435.704H1249.51ZM1236.77 441.69L1225.85 446.828H1254.47L1266.97 441.69H1236.74H1236.77ZM1225.44 447.033L1215.68 451.632H1242.81L1254 447.033H1225.44ZM1215.3 451.811L1206.51 455.948H1232.27L1242.37 451.811H1215.3ZM1206.15 456.102L1198.19 459.852H1222.75L1231.86 456.102H1206.15ZM1197.88 460.007L1190.64 463.423H1214.06L1222.36 460.007H1197.86H1197.88ZM1196.88 460.007H1172.38L1166.24 463.423H1189.66L1196.86 460.007H1196.88ZM1171.38 460.007H1146.87L1141.87 463.423H1165.29L1171.38 460.007ZM1145.87 460.007H1121.37L1117.47 463.423H1140.89L1145.87 460.007ZM1120.37 460.007H1095.87L1093.07 463.423H1116.49L1120.34 460.007H1120.37ZM1094.86 460.007H1070.36L1068.67 463.423H1092.09L1094.84 460.007H1094.86ZM1069.36 460.007H1044.86L1044.29 463.423H1067.71L1069.36 460.007ZM1043.85 460.007H1019.35L1019.89 463.423H1043.31L1043.85 460.007ZM1018.35 460.007H993.847L995.49 463.423H1018.91L1018.35 460.007ZM992.845 460.007H968.342L971.09 463.423H994.515L992.819 460.007H992.845ZM967.34 460.007H942.838L946.69 463.423H970.114L967.315 460.007H967.34ZM941.836 460.007H917.333L922.316 463.423H945.74L941.836 460.007ZM916.331 460.007H891.828L897.916 463.423H921.34L916.331 460.007ZM890.827 460.007H866.324L873.515 463.423H896.94L890.801 460.007H890.827ZM865.322 460.007H840.819L849.115 463.423H872.539L865.296 460.007H865.322ZM865.014 459.852L857.052 456.102H831.342L840.46 459.852H865.014ZM830.289 456.102H804.578L814.929 459.852H839.484L830.314 456.102H830.289ZM829.903 455.948L819.758 451.811H792.687L804.116 455.948H829.878H829.903ZM819.321 451.632L808.071 447.033H779.51L792.198 451.632H819.321ZM807.558 446.828L794.973 441.69H764.742L778.92 446.828H807.532H807.558ZM794.433 441.458L780.281 435.678H748.175L764.125 441.458H794.407H794.433ZM779.665 435.421L763.637 428.87H729.4L747.456 435.421H779.639H779.665ZM762.944 428.588L744.657 421.112H708.005L728.63 428.588H762.944ZM743.835 420.804L722.748 412.197H683.297L707.08 420.804H743.835ZM721.823 411.812L697.243 401.793H654.53L682.244 411.812H721.798H721.823ZM696.165 401.33L667.167 389.487H620.627L653.323 401.33H696.165ZM665.857 388.948L631.106 374.767H579.943L619.137 388.948H665.857ZM629.539 374.125L587.135 356.81H530.372L578.171 374.125H629.514H629.539ZM585.208 356.013L532.324 334.433H468.55L528.189 356.013H585.208ZM529.884 333.432L462.103 305.763H389.365L465.801 333.432H529.884ZM458.892 304.453L368.843 267.691H284.187L385.743 304.453H458.892ZM461.897 304.453H535.047L456.966 267.691H372.31L461.872 304.453H461.897ZM453.216 265.918L344.494 214.718H243.272L368.021 265.918H453.216ZM456.735 265.918H541.93L449.877 214.718H348.655L456.735 265.918ZM545.449 265.918H630.644L555.26 214.718H454.038L545.423 265.918H545.449ZM634.163 265.918H719.358L660.669 214.718H559.447L634.163 265.918ZM722.876 265.918H808.071L766.052 214.718H664.83L722.876 265.918ZM811.59 265.918H896.785L871.435 214.718H770.213L811.565 265.918H811.59ZM900.304 265.918H985.499L976.818 214.718H875.596L900.278 265.918H900.304ZM989.018 265.918H1074.21L1082.23 214.718H981.005L989.018 265.918ZM1077.73 265.918H1162.93L1187.61 214.718H1086.39L1077.71 265.918H1077.73ZM1166.45 265.918H1251.64L1292.99 214.718H1191.77L1166.42 265.918H1166.45ZM1255.16 265.918H1340.35L1398.4 214.718H1297.18L1255.16 265.918ZM1343.87 265.918H1429.07L1503.78 214.718H1402.56L1343.87 265.918ZM1432.59 265.918H1517.78L1609.17 214.718H1507.95L1432.56 265.918H1432.59ZM1521.3 265.918H1606.5L1714.58 214.718H1613.35L1521.3 265.918ZM1610.02 265.918H1695.21L1819.96 214.718H1718.74L1610.02 265.918ZM1606.27 267.691L1528.18 304.453H1601.33L1690.9 267.691H1606.24H1606.27ZM1604.36 304.453H1677.51L1779.07 267.691H1694.41L1604.36 304.453ZM1601.18 305.763L1533.4 333.432H1597.48L1673.92 305.763H1601.18ZM1530.93 334.433L1478.05 356.013H1535.07L1594.71 334.433H1530.93ZM1476.12 356.81L1433.72 374.125H1485.06L1532.86 356.81H1476.1H1476.12ZM1432.15 374.767L1397.4 388.948H1444.12L1483.31 374.767H1432.15ZM1396.09 389.487L1367.09 401.33H1409.93L1442.63 389.487H1396.09ZM1365.99 401.767L1341.41 411.786H1380.96L1408.68 401.767H1365.96H1365.99ZM1340.48 412.172L1319.4 420.778H1356.15L1379.93 412.172H1340.48ZM1318.6 421.112L1300.31 428.588H1334.63L1355.25 421.112H1318.6ZM1299.59 428.87L1283.57 435.421H1315.75L1333.81 428.87H1299.57H1299.59ZM1282.95 435.652L1268.8 441.433H1299.08L1315.03 435.652H1282.92H1282.95ZM1268.26 441.638L1255.67 446.776H1284.29L1298.46 441.638H1268.23H1268.26ZM1255.19 446.982L1243.94 451.58H1271.06L1283.75 446.982H1255.19ZM1243.47 451.76L1233.33 455.896H1259.09L1270.52 451.76H1243.45H1243.47ZM1232.94 456.05L1223.77 459.801H1248.33L1258.68 456.05H1232.97H1232.94ZM1223.41 459.955L1215.07 463.372H1238.49L1247.89 459.955H1223.39H1223.41ZM1214.73 463.5L1207.1 466.609H1229.53L1238.13 463.5H1214.73ZM1213.76 463.5H1190.36L1183.76 466.609H1206.18L1213.76 463.5ZM1189.41 463.5H1166.01L1160.41 466.609H1182.83L1189.41 463.5ZM1165.06 463.5H1141.66L1137.09 466.609H1159.51L1165.06 463.5ZM1140.71 463.5H1117.31L1113.74 466.609H1136.16L1140.71 463.5ZM1116.36 463.5H1092.96L1090.42 466.609H1112.84L1116.36 463.5ZM1092.01 463.5H1068.61L1067.07 466.609H1089.5L1092.01 463.5ZM1067.66 463.5H1044.27L1043.73 466.609H1066.15L1067.64 463.5H1067.66ZM1043.31 463.5H1019.92L1020.4 466.609H1042.83L1043.31 463.5ZM1018.97 463.5H995.568L997.057 466.609H1019.48L1018.94 463.5H1018.97ZM994.617 463.5H971.219L973.736 466.609H996.158L994.617 463.5ZM970.268 463.5H946.87L950.389 466.609H972.811L970.268 463.5ZM945.92 463.5H922.521L927.067 466.609H949.49L945.92 463.5ZM921.571 463.5H898.172L903.72 466.609H926.143L921.571 463.5ZM897.222 463.5H873.824L880.399 466.609H902.821L897.222 463.5ZM872.873 463.5H849.475L857.052 466.609H879.474L872.873 463.5ZM848.524 463.5H825.126L833.73 466.609H856.153L848.524 463.5ZM848.19 463.372L839.843 459.955H815.34L824.741 463.372H848.165H848.19ZM814.339 459.955H789.836L800.366 463.372H823.79L814.339 459.955ZM813.928 459.801L803.525 456.05H777.815L789.373 459.801H813.928ZM803.089 455.896L791.608 451.76H764.536L777.327 455.896H803.089ZM791.094 451.58L778.329 446.982H749.768L763.971 451.58H791.094ZM777.79 446.776L763.535 441.638H733.304L749.151 446.776H777.764H777.79ZM762.918 441.407L746.891 435.627H714.786L732.611 441.407H762.893H762.918ZM746.198 435.37L728.065 428.819H693.827L714.015 435.37H746.198ZM727.243 428.536L706.516 421.06H669.864L692.928 428.536H727.243ZM705.617 420.752L681.73 412.146H642.279L668.862 420.752H705.617ZM680.677 411.761L652.835 401.741H610.122L641.097 411.761H680.651H680.677ZM651.602 401.279L618.752 389.436H572.212L608.786 401.279H651.628H651.602ZM617.262 388.896L577.888 374.715H526.725L570.542 388.896H617.262ZM576.116 374.073L528.086 356.758H471.324L524.773 374.073H576.116ZM525.877 355.962L465.981 334.382H402.207L468.858 355.962H525.877ZM463.182 333.38L386.385 305.712H313.647L399.099 333.38H463.182ZM382.764 304.402L280.745 267.639H196.09L309.615 304.402H382.764ZM275.84 265.867L133.754 214.666H32.5316L190.645 265.867H275.84ZM279.359 265.867H364.554L239.137 214.666H137.915L279.333 265.867H279.359ZM232.947 212.149L46.247 135.926H-79.6064L130.928 212.149H232.947ZM237.159 212.149H339.177L177.314 135.926H51.4609L237.159 212.149ZM343.364 212.149H445.382L308.33 135.926H182.477L343.364 212.149ZM449.569 212.149H551.587L439.372 135.926H313.519L449.569 212.149ZM555.774 212.149H657.792L570.414 135.926H444.56L555.8 212.149H555.774ZM661.979 212.149H763.997L701.43 135.926H575.577L661.979 212.149ZM768.184 212.149H870.202L832.472 135.926H706.618L768.184 212.149ZM874.389 212.149H976.407L963.513 135.926H837.66L874.414 212.149H874.389ZM980.594 212.149H1082.61L1094.53 135.926H968.676L980.594 212.149ZM1086.8 212.149H1188.82L1225.57 135.926H1099.72L1086.82 212.149H1086.8ZM1193 212.149H1295.02L1356.59 135.926H1230.73L1193 212.149ZM1299.21 212.149H1401.23L1487.63 135.926H1361.78L1299.21 212.149ZM1405.41 212.149H1507.43L1618.67 135.926H1492.82L1405.44 212.149H1405.41ZM1511.62 212.149H1613.64L1749.69 135.926H1623.83L1511.62 212.149ZM1617.82 212.149H1719.84L1880.73 135.926H1754.88L1617.82 212.149ZM1724.03 212.149H1826.05L2011.74 135.926H1885.89L1724.03 212.149ZM1830.23 212.149H1932.25L2142.79 135.926H2016.93L1830.23 212.149ZM1824.04 214.666L1698.63 265.867H1783.82L1925.24 214.666H1824.02H1824.04ZM1787.34 265.867H1872.53L2030.65 214.666H1929.43L1787.34 265.867ZM1782.43 267.639L1680.42 304.402H1753.56L1867.09 267.639H1782.43ZM1676.79 305.712L1600 333.38H1664.08L1749.53 305.712H1676.79ZM1597.22 334.382L1537.33 355.962H1594.35L1661 334.382H1597.22ZM1535.12 356.758L1487.09 374.073H1538.43L1591.88 356.758H1535.12ZM1485.29 374.715L1445.92 388.896H1492.64L1536.45 374.715H1485.29ZM1444.45 389.436L1411.6 401.279H1454.44L1491.02 389.436H1444.48H1444.45ZM1410.34 401.716L1382.5 411.735H1422.06L1453.03 401.716H1410.32H1410.34ZM1381.45 412.12L1357.56 420.726H1394.32L1420.9 412.12H1381.45ZM1356.64 421.06L1335.91 428.536H1370.23L1393.29 421.06H1356.64ZM1335.11 428.819L1316.98 435.37H1349.16L1369.35 428.819H1335.11ZM1316.26 435.601L1300.24 441.381H1330.52L1348.34 435.601H1316.24H1316.26ZM1299.62 441.587L1285.36 446.725H1313.98L1329.82 441.587H1299.59H1299.62ZM1284.82 446.93L1272.06 451.529H1299.18L1313.39 446.93H1284.82ZM1271.57 451.709L1260.09 455.845H1285.85L1298.64 451.709H1271.57ZM1259.63 455.999L1249.23 459.75H1273.78L1285.34 455.999H1259.63ZM1248.82 459.904L1239.36 463.321H1262.79L1273.32 459.904H1248.82ZM1238.98 463.449L1230.35 466.558H1252.77L1262.38 463.449H1238.98ZM1229.99 466.686L1222.08 469.538H1243.55L1252.36 466.686H1229.99ZM1229.06 466.686H1206.69L1199.71 469.538H1221.18L1229.06 466.686ZM1205.77 466.686H1183.4L1177.34 469.538H1198.81L1205.77 466.686ZM1182.47 466.686H1160.1L1154.96 469.538H1176.44L1182.47 466.686ZM1159.18 466.686H1136.81L1132.59 469.538H1154.07L1159.15 466.686H1159.18ZM1135.88 466.686H1113.51L1110.25 469.538H1131.72L1135.88 466.686ZM1112.59 466.686H1090.21L1087.88 469.538H1109.35L1112.59 466.686ZM1089.29 466.686H1066.92L1065.51 469.538H1086.98L1089.29 466.686ZM1065.99 466.686H1043.62L1043.14 469.538H1064.61L1065.99 466.686ZM1042.7 466.686H1020.33L1020.76 469.538H1042.24L1042.67 466.686H1042.7ZM1019.4 466.686H997.031L998.419 469.538H1019.89L1019.4 466.686ZM996.107 466.686H973.736L976.047 469.538H997.52L996.107 466.686ZM972.811 466.686H950.44L953.676 469.538H975.148L972.811 466.686ZM949.515 466.686H927.144L931.305 469.538H952.777L949.515 466.686ZM926.22 466.686H903.849L908.934 469.538H930.406L926.194 466.686H926.22ZM902.924 466.686H880.553L886.589 469.538H908.061L902.924 466.686ZM879.628 466.686H857.257L864.218 469.538H885.69L879.628 466.686ZM856.333 466.686H833.961L841.846 469.538H863.319L856.333 466.686ZM833.037 466.686H810.666L819.475 469.538H840.948L833.037 466.686ZM832.703 466.558L824.073 463.449H800.674L810.28 466.558H832.703ZM799.724 463.449H776.326L786.959 466.558H809.381L799.724 463.449ZM799.313 463.321L788.757 459.904H764.254L775.889 463.321H799.313ZM788.295 459.775L776.685 456.025H750.975L763.766 459.775H788.32H788.295ZM776.172 455.87L763.329 451.734H736.258L750.384 455.87H776.146H776.172ZM762.79 451.555L748.535 446.956H719.974L735.667 451.555H762.79ZM747.919 446.75L731.994 441.612H701.764L719.306 446.75H747.919ZM731.301 441.381L713.399 435.601H681.293L700.993 441.381H731.275H731.301ZM712.603 435.344L692.338 428.793H658.1L680.42 435.344H712.603ZM691.439 428.511L668.297 421.035H631.645L657.124 428.511H691.439ZM667.27 420.726L640.584 412.12H601.132L630.515 420.726H667.27ZM639.402 411.735L608.298 401.716H565.585L599.823 411.735H639.376H639.402ZM606.911 401.253L570.183 389.41H523.643L564.07 401.253H606.911ZM568.539 388.871L524.542 374.69H473.378L521.819 388.871H568.539ZM522.538 374.048L468.858 356.732H412.095L471.169 374.048H522.512H522.538ZM466.418 355.936L399.484 334.356H335.71L409.399 355.936H466.418ZM396.377 333.354L310.565 305.686H237.827L332.294 333.354H396.377ZM306.507 304.376L192.52 267.614H107.864L233.358 304.376H306.507ZM187.049 265.841L28.2936 214.641H-72.9285L101.854 265.841H187.049ZM20.4343 212.123L-215.913 135.901H-341.767L-81.5841 212.123H20.4343ZM24.6464 212.123H126.665L-84.846 135.901H-210.7L24.6722 212.123H24.6464ZM-95.7363 131.996L-443.991 6.4996H-610.426L-222.9 131.996H-95.8133H-95.7363ZM-90.4966 131.996H36.5897L-270.801 6.4996H-437.133L-90.4966 131.996ZM41.8293 131.996H168.916L-97.5855 6.4996H-263.918L41.855 131.996H41.8293ZM174.155 131.996H301.242L75.6042 6.4996H-90.7278L174.155 131.996ZM306.481 131.996H433.568L248.82 6.4996H82.4877L306.507 131.996H306.481ZM438.807 131.996H565.893L422.01 6.4996H255.677L438.807 131.996ZM571.133 131.996H698.219L595.225 6.4996H428.893L571.159 131.996H571.133ZM703.459 131.996H830.545L768.415 6.4996H602.083L703.459 131.996ZM835.785 131.996H962.871L941.63 6.4996H775.298L835.811 131.996H835.785ZM968.111 131.996H1095.2L1114.82 6.4996H948.488L968.111 131.996ZM1100.44 131.996H1227.52L1288.04 6.4996H1121.7L1100.46 131.996H1100.44ZM1232.76 131.996H1359.85L1461.23 6.4996H1294.89L1232.76 131.996ZM1365.09 131.996H1492.18L1634.44 6.4996H1468.11L1365.11 131.996H1365.09ZM1497.41 131.996H1624.5L1807.63 6.4996H1641.3L1497.41 131.996ZM1629.74 131.996H1756.83L1980.85 6.4996H1814.51L1629.77 131.996H1629.74ZM1762.07 131.996H1889.15L2154.04 6.4996H1987.7L1762.07 131.996ZM1894.39 131.996H2021.48L2327.25 6.4996H2160.92L1894.42 131.996H1894.39ZM2026.72 131.996H2153.8L2500.44 6.4996H2334.11L2026.72 131.996ZM2159.04 131.996H2286.13L2673.66 6.4996H2507.32L2159.07 131.996H2159.04ZM2148.18 135.901L1936.67 212.123H2038.69L2274.06 135.901H2148.21H2148.18ZM2042.87 212.123H2144.89L2405.07 135.901H2279.22L2042.87 212.123ZM2035.04 214.641L1876.28 265.841H1961.48L2136.26 214.641H2035.04ZM1870.79 267.614L1756.8 304.376H1829.95L1955.44 267.614H1870.79ZM1752.74 305.686L1666.93 333.354H1731.01L1825.48 305.686H1752.74ZM1663.82 334.356L1596.89 355.936H1653.91L1727.6 334.356H1663.82ZM1594.42 356.732L1540.74 374.048H1592.09L1651.16 356.732H1594.4H1594.42ZM1538.77 374.69L1494.77 388.871H1541.49L1589.93 374.69H1538.77ZM1493.13 389.41L1456.4 401.253H1499.24L1539.67 389.41H1493.13ZM1455.01 401.69L1423.91 411.709H1463.46L1497.7 401.69H1454.98H1455.01ZM1422.72 412.095L1396.04 420.701H1432.79L1462.18 412.095H1422.72ZM1395.01 421.035L1371.87 428.511H1406.18L1431.66 421.035H1395.01ZM1370.97 428.793L1350.71 435.344H1382.89L1405.21 428.793H1370.97ZM1349.91 435.575L1332.01 441.356H1362.29L1381.99 435.575H1349.88H1349.91ZM1331.31 441.561L1315.39 446.699H1344L1361.54 441.561H1331.31ZM1314.77 446.905L1300.52 451.503H1327.64L1343.33 446.905H1314.77ZM1299.95 451.683L1287.11 455.819H1312.87L1327 451.683H1299.93H1299.95ZM1286.62 455.973L1275.01 459.724H1299.57L1312.36 455.973H1286.65H1286.62ZM1274.55 459.878L1263.99 463.295H1287.42L1299.05 459.878H1274.55ZM1263.56 463.423L1253.9 466.532H1276.32L1286.96 463.423H1263.56ZM818.551 469.897L809.69 467.046H787.319L797.053 469.897H818.525H818.551ZM-355.226 132.355H-228.139L-617.283 6.85925H-783.615L-355.226 132.355ZM2680.28 6.85925L2291.14 132.355H2418.23L2846.62 6.85925H2680.28Z" fill="url(#paint0_linear_409_26)" fill-opacity="0.3"/>
</g>
<defs>
<linearGradient id="paint0_linear_409_26" x1="1031.5" y1="0" x2="1031.5" y2="470" gradientUnits="userSpaceOnUse">
<stop stop-color="#A42AEE"/>
<stop offset="1" stop-color="#2900A9" stop-opacity="0"/>
</linearGradient>
<clipPath id="clip0_409_26">
<rect width="3691" height="470" fill="white" transform="matrix(1 0 0 -1 -814 470)"/>
</clipPath>
</defs>
</svg>
